<svg xmlns="http://www.w3.org/2000/svg" version="1.1" xmlns:xlink="http://www.w3.org/1999/xlink" width="1000" height="1000"><g clip-path="url(#SvgjsClipPath1003)"><rect width="1000" height="1000" fill="#ffffff" style="--darkreader-inline-fill: var(--darkreader-background-ffffff, #181a1b);" data-darkreader-inline-fill=""></rect><g transform="matrix(3.5,0,0,3.5,150,150)"><svg xmlns="http://www.w3.org/2000/svg" version="1.1" xmlns:xlink="http://www.w3.org/1999/xlink" width="200" height="200"><svg xmlns="http://www.w3.org/2000/svg" version="1.1" xmlns:xlink="http://www.w3.org/1999/xlink" viewBox="0 0 200 200"><rect width="200" height="200" fill="url('#gradient')"></rect><defs><linearGradient id="gradient" gradientTransform="rotate(73 0.5 0.5)"><stop offset="0%" stop-color="#1b3855" style="--darkreader-inline-stopcolor: var(--darkreader-background-1b3855, #162d44);" data-darkreader-inline-stopcolor=""></stop><stop offset="100%" stop-color="#42e3c1" style="--darkreader-inline-stopcolor: var(--darkreader-background-42e3c1, #179e89);" data-darkreader-inline-stopcolor=""></stop></linearGradient><clipPath id="SvgjsClipPath1003"><rect width="1000" height="1000" x="0" y="0" rx="350" ry="350"></rect></clipPath></defs><g><g fill="#1b3855" transform="matrix(1.9854691330510363,0,0,1.9854691330510363,11.757462605315268,110.54534151002031)" stroke="#0e5278" stroke-width="0" style="--darkreader-inline-fill: var(--darkreader-background-1b3855, #162d44); --darkreader-inline-stroke: var(--darkreader-text-0e5278, #7dc7f0);" data-darkreader-inline-fill="" data-darkreader-inline-stroke=""><path d="M8.41-3.78L8.41-3.78Q8.41-4.53 7.88-4.95Q7.34-5.37 6.01-5.82Q4.67-6.27 3.82-6.69L3.82-6.69Q1.05-8.05 1.05-10.42L1.05-10.42Q1.05-11.60 1.74-12.50Q2.43-13.41 3.69-13.91Q4.95-14.41 6.52-14.41L6.52-14.41Q8.06-14.41 9.27-13.87Q10.49-13.32 11.16-12.31Q11.84-11.30 11.84-10L11.84-10L8.42-10Q8.42-10.87 7.89-11.35Q7.35-11.83 6.45-11.83L6.45-11.83Q5.53-11.83 5.00-11.42Q4.46-11.02 4.46-10.39L4.46-10.39Q4.46-9.84 5.05-9.40Q5.63-8.96 7.11-8.48Q8.58-8.01 9.53-7.46L9.53-7.46Q11.84-6.13 11.84-3.80L11.84-3.80Q11.84-1.93 10.43-0.87Q9.02 0.20 6.57 0.20L6.57 0.20Q4.84 0.20 3.44-0.42Q2.04-1.04 1.33-2.12Q0.63-3.20 0.63-4.61L0.63-4.61L4.06-4.61Q4.06-3.47 4.65-2.92Q5.24-2.38 6.57-2.38L6.57-2.38Q7.42-2.38 7.92-2.75Q8.41-3.12 8.41-3.78ZM16.00-10.57L17.67-4.61L19.42-10.57L22.95-10.57L18.64 1.77L18.46 2.22Q17.54 4.27 15.21 4.27L15.21 4.27Q14.57 4.27 13.86 4.07L13.86 4.07L13.86 1.72L14.29 1.72Q14.98 1.72 15.35 1.52Q15.71 1.32 15.89 0.80L15.89 0.80L16.15 0.10L12.48-10.57L16.00-10.57ZM23.83-10.57L26.91-10.57L27.02-9.33Q28.14-10.76 30.04-10.76L30.04-10.76Q32.04-10.76 32.74-9.17L32.74-9.17Q33.82-10.76 35.85-10.76L35.85-10.76Q39.06-10.76 39.15-6.88L39.15-6.88L39.15 0L35.85 0L35.85-6.67Q35.85-7.48 35.58-7.85Q35.30-8.22 34.58-8.22L34.58-8.22Q33.60-8.22 33.13-7.35L33.13-7.35L33.13-7.22L33.13 0L29.83 0L29.83-6.65Q29.83-7.48 29.57-7.85Q29.31-8.22 28.56-8.22L28.56-8.22Q27.62-8.22 27.12-7.35L27.12-7.35L27.12 0L23.83 0L23.83-10.57ZM50.84-5.36L50.84-5.21Q50.84-2.74 49.73-1.27Q48.62 0.20 46.74 0.20L46.74 0.20Q45.28 0.20 44.35-0.87L44.35-0.87L44.35 4.06L41.05 4.06L41.05-10.57L44.13-10.57L44.23-9.59Q45.18-10.76 46.72-10.76L46.72-10.76Q48.67-10.76 49.76-9.32Q50.84-7.88 50.84-5.36L50.84-5.36ZM47.55-5.06L47.55-5.41Q47.55-8.22 45.91-8.22L45.91-8.22Q44.74-8.22 44.35-7.38L44.35-7.38L44.35-3.22Q44.78-2.34 45.93-2.34L45.93-2.34Q47.50-2.34 47.55-5.06L47.55-5.06ZM51.88-4.82L51.88-5.38Q51.88-6.96 52.49-8.20Q53.11-9.43 54.26-10.10Q55.41-10.76 56.96-10.76L56.96-10.76Q59.34-10.76 60.70-9.29Q62.07-7.82 62.07-5.29L62.07-5.29L62.07-5.18Q62.07-2.71 60.70-1.25Q59.33 0.20 56.98 0.20L56.98 0.20Q54.73 0.20 53.36-1.16Q51.99-2.51 51.88-4.82L51.88-4.82ZM55.18-5.77L55.17-5.18Q55.17-3.71 55.63-3.03Q56.08-2.34 56.98-2.34L56.98-2.34Q58.74-2.34 58.78-5.05L58.78-5.05L58.78-5.38Q58.78-8.22 56.96-8.22L56.96-8.22Q55.31-8.22 55.18-5.77L55.18-5.77ZM69.05-2.97L69.05-2.97Q69.05-3.39 68.61-3.64Q68.17-3.90 66.94-4.17Q65.71-4.44 64.91-4.89Q64.11-5.33 63.69-5.97Q63.27-6.60 63.27-7.42L63.27-7.42Q63.27-8.88 64.47-9.82Q65.67-10.76 67.62-10.76L67.62-10.76Q69.71-10.76 70.98-9.81Q72.25-8.87 72.25-7.32L72.25-7.32L68.95-7.32Q68.95-8.59 67.61-8.59L67.61-8.59Q67.09-8.59 66.74-8.31Q66.39-8.02 66.39-7.59L66.39-7.59Q66.39-7.15 66.82-6.88Q67.25-6.60 68.19-6.43Q69.13-6.25 69.84-6.01L69.84-6.01Q72.23-5.19 72.23-3.07L72.23-3.07Q72.23-1.62 70.94-0.71Q69.66 0.20 67.62 0.20L67.62 0.20Q66.26 0.20 65.20-0.29Q64.13-0.78 63.54-1.62Q62.94-2.46 62.94-3.39L62.94-3.39L66.02-3.39Q66.04-2.66 66.50-2.32Q66.97-1.98 67.71-1.98L67.71-1.98Q68.38-1.98 68.72-2.26Q69.05-2.53 69.05-2.97ZM77.24-10.57L77.24 0L73.94 0L73.94-10.57L77.24-10.57ZM73.74-13.29L73.74-13.29Q73.74-13.99 74.25-14.44Q74.76-14.89 75.57-14.89Q76.38-14.89 76.88-14.44Q77.39-13.99 77.39-13.29Q77.39-12.59 76.88-12.14Q76.38-11.69 75.57-11.69Q74.76-11.69 74.25-12.14Q73.74-12.59 73.74-13.29ZM83.73-2.34L83.73-2.34Q84.42-2.34 84.80-2.72Q85.19-3.10 85.18-3.77L85.18-3.77L88.26-3.77Q88.26-2.03 87.02-0.92Q85.77 0.20 83.81 0.20L83.81 0.20Q81.50 0.20 80.18-1.25Q78.85-2.70 78.85-5.25L78.85-5.25L78.85-5.39Q78.85-6.99 79.44-8.22Q80.03-9.44 81.14-10.10Q82.26-10.76 83.78-10.76L83.78-10.76Q85.84-10.76 87.05-9.62Q88.26-8.48 88.26-6.52L88.26-6.52L85.18-6.52Q85.18-7.34 84.78-7.78Q84.38-8.22 83.70-8.22L83.70-8.22Q82.42-8.22 82.21-6.59L82.21-6.59Q82.14-6.07 82.14-5.17L82.14-5.17Q82.14-3.57 82.52-2.96Q82.90-2.34 83.73-2.34Z"></path></g></g></svg></svg></g></g></svg>